<mxfile host="app.diagrams.net" agent="Mozilla/5.0 (X11; Linux x86_64; rv:138.0) Gecko/20100101 Firefox/138.0" version="27.1.1">
  <diagram id="RAnL6HuKQR-qvYWNV4sP" name="Page-1">
    <mxGraphModel dx="2543" dy="1362" grid="0" gridSize="10" guides="1" tooltips="1" connect="1" arrows="1" fold="1" page="0" pageScale="1" pageWidth="850" pageHeight="1100" background="none" math="0" shadow="0">
      <root>
        <mxCell id="0" />
        <mxCell id="1" parent="0" />
        <mxCell id="node20" value="&lt;p style=&quot;margin:0px;margin-top:4px;text-align:center;&quot;&gt;&lt;b&gt;AuthenticationController&lt;/b&gt;&lt;/p&gt;&lt;hr size=&quot;1&quot;&gt;" style="verticalAlign=middle;align=left;overflow=fill;fontSize=14;fontFamily=Helvetica;html=1;rounded=0;shadow=0;comic=0;labelBackgroundColor=none;strokeWidth=1;" parent="1" vertex="1">
          <mxGeometry x="169" y="866" width="237" height="30" as="geometry" />
        </mxCell>
        <mxCell id="node4" value="&lt;p style=&quot;margin:0px;margin-top:4px;text-align:center;&quot;&gt;&lt;b&gt;AuthenticationService&lt;/b&gt;&lt;/p&gt;&lt;hr size=&quot;1&quot;&gt;" style="verticalAlign=middle;align=left;overflow=fill;fontSize=14;fontFamily=Helvetica;html=1;rounded=0;shadow=0;comic=0;labelBackgroundColor=none;strokeWidth=1;" parent="1" vertex="1">
          <mxGeometry x="39" y="746" width="217" height="30" as="geometry" />
        </mxCell>
        <mxCell id="node13" value="&lt;p style=&quot;margin:0px;margin-top:4px;text-align:center;&quot;&gt;&lt;i&gt;&amp;lt;&amp;lt;record&amp;gt;&amp;gt;&lt;/i&gt;&lt;br&gt;&lt;b&gt;Country&lt;/b&gt;&lt;/p&gt;&lt;hr size=&quot;1&quot;&gt;" style="verticalAlign=middle;align=left;overflow=fill;fontSize=14;fontFamily=Helvetica;html=1;rounded=0;shadow=0;comic=0;labelBackgroundColor=none;strokeWidth=1;" parent="1" vertex="1">
          <mxGeometry x="131" y="46" width="112" height="43" as="geometry" />
        </mxCell>
        <mxCell id="node11" value="&lt;p style=&quot;margin:0px;margin-top:4px;text-align:center;&quot;&gt;&lt;b&gt;DaoUserDetailsService&lt;/b&gt;&lt;/p&gt;&lt;hr size=&quot;1&quot;&gt;" style="verticalAlign=middle;align=left;overflow=fill;fontSize=14;fontFamily=Helvetica;html=1;rounded=0;shadow=0;comic=0;labelBackgroundColor=none;strokeWidth=1;" parent="1" vertex="1">
          <mxGeometry x="35" y="546" width="225" height="30" as="geometry" />
        </mxCell>
        <mxCell id="node0" value="&lt;p style=&quot;margin:0px;margin-top:4px;text-align:center;&quot;&gt;&lt;b&gt;DataTypeController&lt;/b&gt;&lt;/p&gt;&lt;hr size=&quot;1&quot;&gt;" style="verticalAlign=middle;align=left;overflow=fill;fontSize=14;fontFamily=Helvetica;html=1;rounded=0;shadow=0;comic=0;labelBackgroundColor=none;strokeWidth=1;" parent="1" vertex="1">
          <mxGeometry x="425" y="311" width="199" height="30" as="geometry" />
        </mxCell>
        <mxCell id="node5" value="&lt;p style=&quot;margin:0px;margin-top:4px;text-align:center;&quot;&gt;&lt;b&gt;DataTypeService&lt;/b&gt;&lt;/p&gt;&lt;hr size=&quot;1&quot;&gt;" style="verticalAlign=middle;align=left;overflow=fill;fontSize=14;fontFamily=Helvetica;html=1;rounded=0;shadow=0;comic=0;labelBackgroundColor=none;strokeWidth=1;" parent="1" vertex="1">
          <mxGeometry x="435" y="71" width="179" height="30" as="geometry" />
        </mxCell>
        <mxCell id="node2" value="&lt;p style=&quot;margin:0px;margin-top:4px;text-align:center;&quot;&gt;&lt;b&gt;FuzzySearch&lt;/b&gt;&lt;/p&gt;&lt;hr size=&quot;1&quot;&gt;" style="verticalAlign=middle;align=left;overflow=fill;fontSize=14;fontFamily=Helvetica;html=1;rounded=0;shadow=0;comic=0;labelBackgroundColor=none;strokeWidth=1;" parent="1" vertex="1">
          <mxGeometry x="32" y="166" width="150" height="30" as="geometry" />
        </mxCell>
        <mxCell id="node17" value="&lt;p style=&quot;margin:0px;margin-top:4px;text-align:center;&quot;&gt;&lt;b&gt;FuzzySearchTable&lt;/b&gt;&lt;/p&gt;&lt;hr size=&quot;1&quot;&gt;" style="verticalAlign=middle;align=left;overflow=fill;fontSize=14;fontFamily=Helvetica;html=1;rounded=0;shadow=0;comic=0;labelBackgroundColor=none;strokeWidth=1;" parent="1" vertex="1">
          <mxGeometry x="351" y="406" width="192" height="30" as="geometry" />
        </mxCell>
        <mxCell id="node19" value="&lt;p style=&quot;margin:0px;margin-top:4px;text-align:center;&quot;&gt;&lt;b&gt;InvalidJwtDao&lt;/b&gt;&lt;/p&gt;&lt;hr size=&quot;1&quot;&gt;" style="verticalAlign=middle;align=left;overflow=fill;fontSize=14;fontFamily=Helvetica;html=1;rounded=0;shadow=0;comic=0;labelBackgroundColor=none;strokeWidth=1;" parent="1" vertex="1">
          <mxGeometry x="-172" y="406" width="158" height="30" as="geometry" />
        </mxCell>
        <mxCell id="node3" value="&lt;p style=&quot;margin:0px;margin-top:4px;text-align:center;&quot;&gt;&lt;b&gt;JwtAuthenticationFilter&lt;/b&gt;&lt;/p&gt;&lt;hr size=&quot;1&quot;&gt;" style="verticalAlign=middle;align=left;overflow=fill;fontSize=14;fontFamily=Helvetica;html=1;rounded=0;shadow=0;comic=0;labelBackgroundColor=none;strokeWidth=1;" parent="1" vertex="1">
          <mxGeometry x="-246" y="746" width="226" height="30" as="geometry" />
        </mxCell>
        <mxCell id="node18" value="&lt;p style=&quot;margin:0px;margin-top:4px;text-align:center;&quot;&gt;&lt;b&gt;JwtProvider&lt;/b&gt;&lt;/p&gt;&lt;hr size=&quot;1&quot;&gt;" style="verticalAlign=middle;align=left;overflow=fill;fontSize=14;fontFamily=Helvetica;html=1;rounded=0;shadow=0;comic=0;labelBackgroundColor=none;strokeWidth=1;" parent="1" vertex="1">
          <mxGeometry x="-163" y="546" width="141" height="30" as="geometry" />
        </mxCell>
        <mxCell id="node8" value="&lt;p style=&quot;margin:0px;margin-top:4px;text-align:center;&quot;&gt;&lt;b&gt;OtpProvider&lt;/b&gt;&lt;/p&gt;&lt;hr size=&quot;1&quot;&gt;" style="verticalAlign=middle;align=left;overflow=fill;fontSize=14;fontFamily=Helvetica;html=1;rounded=0;shadow=0;comic=0;labelBackgroundColor=none;strokeWidth=1;" parent="1" vertex="1">
          <mxGeometry x="317" y="546" width="141" height="30" as="geometry" />
        </mxCell>
        <mxCell id="node10" value="&lt;p style=&quot;margin:0px;margin-top:4px;text-align:center;&quot;&gt;&lt;b&gt;SecurityConfig&lt;/b&gt;&lt;/p&gt;&lt;hr size=&quot;1&quot;&gt;" style="verticalAlign=middle;align=left;overflow=fill;fontSize=14;fontFamily=Helvetica;html=1;rounded=0;shadow=0;comic=0;labelBackgroundColor=none;strokeWidth=1;" parent="1" vertex="1">
          <mxGeometry x="-115" y="926" width="164" height="30" as="geometry" />
        </mxCell>
        <mxCell id="node15" value="&lt;p style=&quot;margin:0px;margin-top:4px;text-align:center;&quot;&gt;&lt;b&gt;TableController&lt;/b&gt;&lt;/p&gt;&lt;hr size=&quot;1&quot;&gt;" style="verticalAlign=middle;align=left;overflow=fill;fontSize=14;fontFamily=Helvetica;html=1;rounded=0;shadow=0;comic=0;labelBackgroundColor=none;strokeWidth=1;" parent="1" vertex="1">
          <mxGeometry x="543" y="746" width="168" height="30" as="geometry" />
        </mxCell>
        <mxCell id="node1" value="&lt;p style=&quot;margin:0px;margin-top:4px;text-align:center;&quot;&gt;&lt;b&gt;TableService&lt;/b&gt;&lt;/p&gt;&lt;hr size=&quot;1&quot;&gt;" style="verticalAlign=middle;align=left;overflow=fill;fontSize=14;fontFamily=Helvetica;html=1;rounded=0;shadow=0;comic=0;labelBackgroundColor=none;strokeWidth=1;" parent="1" vertex="1">
          <mxGeometry x="553" y="546" width="148" height="30" as="geometry" />
        </mxCell>
        <mxCell id="node16" value="&lt;p style=&quot;margin:0px;margin-top:4px;text-align:center;&quot;&gt;&lt;b&gt;TabulaApplication&lt;/b&gt;&lt;/p&gt;&lt;hr size=&quot;1&quot;&gt;" style="verticalAlign=middle;align=left;overflow=fill;fontSize=14;fontFamily=Helvetica;html=1;rounded=0;shadow=0;comic=0;labelBackgroundColor=none;strokeWidth=1;" parent="1" vertex="1">
          <mxGeometry x="513" y="866" width="188" height="30" as="geometry" />
        </mxCell>
        <mxCell id="node6" value="&lt;p style=&quot;margin:0px;margin-top:4px;text-align:center;&quot;&gt;&lt;b&gt;User&lt;/b&gt;&lt;/p&gt;&lt;hr size=&quot;1&quot;&gt;" style="verticalAlign=middle;align=left;overflow=fill;fontSize=14;fontFamily=Helvetica;html=1;rounded=0;shadow=0;comic=0;labelBackgroundColor=none;strokeWidth=1;" parent="1" vertex="1">
          <mxGeometry x="-36" y="226" width="86" height="30" as="geometry" />
        </mxCell>
        <mxCell id="node7" value="&lt;p style=&quot;margin:0px;margin-top:4px;text-align:center;&quot;&gt;&lt;b&gt;UserController&lt;/b&gt;&lt;/p&gt;&lt;hr size=&quot;1&quot;&gt;" style="verticalAlign=middle;align=left;overflow=fill;fontSize=14;fontFamily=Helvetica;html=1;rounded=0;shadow=0;comic=0;labelBackgroundColor=none;strokeWidth=1;" parent="1" vertex="1">
          <mxGeometry x="406" y="926" width="162" height="30" as="geometry" />
        </mxCell>
        <mxCell id="node9" value="&lt;p style=&quot;margin:0px;margin-top:4px;text-align:center;&quot;&gt;&lt;b&gt;UserDao&lt;/b&gt;&lt;/p&gt;&lt;hr size=&quot;1&quot;&gt;" style="verticalAlign=middle;align=left;overflow=fill;fontSize=14;fontFamily=Helvetica;html=1;rounded=0;shadow=0;comic=0;labelBackgroundColor=none;strokeWidth=1;" parent="1" vertex="1">
          <mxGeometry x="-51" y="346" width="117" height="30" as="geometry" />
        </mxCell>
        <mxCell id="node12" value="&lt;p style=&quot;margin:0px;margin-top:4px;text-align:center;&quot;&gt;&lt;b&gt;UserService&lt;/b&gt;&lt;/p&gt;&lt;hr size=&quot;1&quot;&gt;" style="verticalAlign=middle;align=left;overflow=fill;fontSize=14;fontFamily=Helvetica;html=1;rounded=0;shadow=0;comic=0;labelBackgroundColor=none;strokeWidth=1;" parent="1" vertex="1">
          <mxGeometry x="316" y="746" width="142" height="30" as="geometry" />
        </mxCell>
        <mxCell id="edge3" value="" style="html=1;rounded=1;edgeStyle=orthogonalEdgeStyle;dashed=0;startArrow=diamondThinstartSize=12;endArrow=openThin;endSize=12;strokeColor=#595959;exitX=0.500;exitY=0.001;exitDx=0;exitDy=0;entryX=0.500;entryY=0.001;entryDx=0;entryDy=0;fontFamily=Helvetica;verticalAlign=middle;" parent="1" source="node20" target="node4" edge="1">
          <mxGeometry width="50" height="50" relative="1" as="geometry">
            <Array as="points">
              <mxPoint x="287" y="720" />
              <mxPoint x="147" y="720" />
            </Array>
          </mxGeometry>
        </mxCell>
        <mxCell id="label18" value="1" style="edgeLabel;resizable=0;html=1;align=left;verticalAlign=middle;strokeColor=default;fontFamily=Helvetica;" parent="edge3" vertex="1" connectable="0">
          <mxGeometry x="278" y="842" as="geometry" />
        </mxCell>
        <mxCell id="label22" value="1" style="edgeLabel;resizable=0;html=1;align=left;verticalAlign=middle;strokeColor=default;fontFamily=Helvetica;" parent="edge3" vertex="1" connectable="0">
          <mxGeometry x="227" y="701" as="geometry" />
        </mxCell>
        <mxCell id="label23" value="authenticationService" style="edgeLabel;resizable=0;html=1;align=left;verticalAlign=middle;strokeColor=default;fontFamily=Helvetica;" parent="edge3" vertex="1" connectable="0">
          <mxGeometry x="287" y="784" as="geometry" />
        </mxCell>
        <mxCell id="edge7" value="" style="html=1;rounded=1;edgeStyle=orthogonalEdgeStyle;dashed=0;startArrow=diamondThinstartSize=12;endArrow=openThin;endSize=12;strokeColor=#595959;exitX=0.500;exitY=0.002;exitDx=0;exitDy=0;entryX=0.500;entryY=0.001;entryDx=0;entryDy=0;fontFamily=Helvetica;verticalAlign=middle;" parent="1" source="node4" target="node18" edge="1">
          <mxGeometry width="50" height="50" relative="1" as="geometry">
            <Array as="points">
              <mxPoint x="147" y="700" />
              <mxPoint x="47" y="700" />
              <mxPoint x="47" y="680" />
              <mxPoint x="-133" y="680" />
              <mxPoint x="-133" y="600" />
              <mxPoint x="-193" y="600" />
              <mxPoint x="-193" y="520" />
              <mxPoint x="-93" y="520" />
            </Array>
          </mxGeometry>
        </mxCell>
        <mxCell id="label42" value="1" style="edgeLabel;resizable=0;html=1;align=left;verticalAlign=middle;strokeColor=default;fontFamily=Helvetica;" parent="edge7" vertex="1" connectable="0">
          <mxGeometry x="-47" y="661" as="geometry" />
        </mxCell>
        <mxCell id="label46" value="1" style="edgeLabel;resizable=0;html=1;align=left;verticalAlign=middle;strokeColor=default;fontFamily=Helvetica;" parent="edge7" vertex="1" connectable="0">
          <mxGeometry x="-92" y="661" as="geometry" />
        </mxCell>
        <mxCell id="label47" value="jwtProvider" style="edgeLabel;resizable=0;html=1;align=left;verticalAlign=middle;strokeColor=default;fontFamily=Helvetica;" parent="edge7" vertex="1" connectable="0">
          <mxGeometry x="-79" y="680" as="geometry">
            <mxPoint x="-9" y="11" as="offset" />
          </mxGeometry>
        </mxCell>
        <mxCell id="edge17" value="" style="html=1;rounded=1;edgeStyle=orthogonalEdgeStyle;dashed=0;startArrow=diamondThinstartSize=12;endArrow=openThin;endSize=12;strokeColor=#595959;exitX=0.500;exitY=0.002;exitDx=0;exitDy=0;entryX=0.500;entryY=0.001;entryDx=0;entryDy=0;fontFamily=Helvetica;verticalAlign=middle;" parent="1" source="node4" target="node8" edge="1">
          <mxGeometry width="50" height="50" relative="1" as="geometry">
            <Array as="points">
              <mxPoint x="147" y="700" />
              <mxPoint x="47" y="700" />
              <mxPoint x="47" y="660" />
              <mxPoint x="287" y="660" />
              <mxPoint x="287" y="520" />
              <mxPoint x="387" y="520" />
            </Array>
          </mxGeometry>
        </mxCell>
        <mxCell id="label102" value="1" style="edgeLabel;resizable=0;html=1;align=left;verticalAlign=middle;strokeColor=default;fontFamily=Helvetica;" parent="edge17" vertex="1" connectable="0">
          <mxGeometry x="103" y="641" as="geometry" />
        </mxCell>
        <mxCell id="label106" value="1" style="edgeLabel;resizable=0;html=1;align=left;verticalAlign=middle;strokeColor=default;fontFamily=Helvetica;" parent="edge17" vertex="1" connectable="0">
          <mxGeometry x="223" y="641" as="geometry" />
        </mxCell>
        <mxCell id="label107" value="otpProvider" style="edgeLabel;resizable=0;html=1;align=left;verticalAlign=middle;strokeColor=default;fontFamily=Helvetica;" parent="edge17" vertex="1" connectable="0">
          <mxGeometry x="387" y="524" as="geometry" />
        </mxCell>
        <mxCell id="edge16" value="" style="html=1;rounded=1;edgeStyle=orthogonalEdgeStyle;dashed=0;startArrow=diamondThinstartSize=12;endArrow=openThin;endSize=12;strokeColor=#595959;exitX=0.500;exitY=0.002;exitDx=0;exitDy=0;entryX=0.500;entryY=1.001;entryDx=0;entryDy=0;fontFamily=Helvetica;verticalAlign=middle;" parent="1" source="node4" target="node9" edge="1">
          <mxGeometry width="50" height="50" relative="1" as="geometry">
            <Array as="points">
              <mxPoint x="147" y="700" />
              <mxPoint x="47" y="700" />
              <mxPoint x="47" y="640" />
              <mxPoint x="7" y="640" />
            </Array>
          </mxGeometry>
        </mxCell>
        <mxCell id="label96" value="1" style="edgeLabel;resizable=0;html=1;align=left;verticalAlign=middle;strokeColor=default;fontFamily=Helvetica;" parent="edge16" vertex="1" connectable="0">
          <mxGeometry x="126" y="681" as="geometry" />
        </mxCell>
        <mxCell id="label100" value="1" style="edgeLabel;resizable=0;html=1;align=left;verticalAlign=middle;strokeColor=default;fontFamily=Helvetica;" parent="edge16" vertex="1" connectable="0">
          <mxGeometry x="-2" y="586" as="geometry" />
        </mxCell>
        <mxCell id="label101" value="userDao" style="edgeLabel;resizable=0;html=1;align=left;verticalAlign=middle;strokeColor=default;fontFamily=Helvetica;" parent="edge16" vertex="1" connectable="0">
          <mxGeometry x="7" y="586" as="geometry" />
        </mxCell>
        <mxCell id="edge21" value="" style="html=1;rounded=1;edgeStyle=orthogonalEdgeStyle;dashed=0;startArrow=diamondThinstartSize=12;endArrow=openThin;endSize=12;strokeColor=#595959;exitX=0.500;exitY=0.002;exitDx=0;exitDy=0;entryX=0.500;entryY=1.001;entryDx=0;entryDy=0;fontFamily=Helvetica;verticalAlign=middle;" parent="1" source="node11" target="node9" edge="1">
          <mxGeometry width="50" height="50" relative="1" as="geometry">
            <Array as="points">
              <mxPoint x="147" y="500" />
              <mxPoint x="7" y="500" />
            </Array>
          </mxGeometry>
        </mxCell>
        <mxCell id="label126" value="1" style="edgeLabel;resizable=0;html=1;align=left;verticalAlign=middle;strokeColor=default;fontFamily=Helvetica;" parent="edge21" vertex="1" connectable="0">
          <mxGeometry x="138" y="522" as="geometry" />
        </mxCell>
        <mxCell id="label130" value="1" style="edgeLabel;resizable=0;html=1;align=left;verticalAlign=middle;strokeColor=default;fontFamily=Helvetica;" parent="edge21" vertex="1" connectable="0">
          <mxGeometry x="138" y="491" as="geometry" />
        </mxCell>
        <mxCell id="label131" value="userDao" style="edgeLabel;resizable=0;html=1;align=left;verticalAlign=middle;strokeColor=default;fontFamily=Helvetica;" parent="edge21" vertex="1" connectable="0">
          <mxGeometry x="147" y="514" as="geometry" />
        </mxCell>
        <mxCell id="edge2" value="" style="html=1;rounded=1;edgeStyle=orthogonalEdgeStyle;dashed=0;startArrow=diamondThinstartSize=12;endArrow=openThin;endSize=12;strokeColor=#595959;exitX=0.500;exitY=0.001;exitDx=0;exitDy=0;entryX=0.500;entryY=1.001;entryDx=0;entryDy=0;fontFamily=Helvetica;verticalAlign=middle;" parent="1" source="node0" target="node5" edge="1">
          <mxGeometry width="50" height="50" relative="1" as="geometry">
            <Array as="points" />
          </mxGeometry>
        </mxCell>
        <mxCell id="label12" value="1" style="edgeLabel;resizable=0;html=1;align=left;verticalAlign=middle;strokeColor=default;fontFamily=Helvetica;" parent="edge2" vertex="1" connectable="0">
          <mxGeometry x="508" y="295" as="geometry" />
        </mxCell>
        <mxCell id="label16" value="1" style="edgeLabel;resizable=0;html=1;align=left;verticalAlign=middle;strokeColor=default;fontFamily=Helvetica;" parent="edge2" vertex="1" connectable="0">
          <mxGeometry x="511" y="90" as="geometry">
            <mxPoint x="-2" y="24" as="offset" />
          </mxGeometry>
        </mxCell>
        <mxCell id="label17" value="dataTypeService" style="edgeLabel;resizable=0;html=1;align=left;verticalAlign=middle;strokeColor=default;fontFamily=Helvetica;" parent="edge2" vertex="1" connectable="0">
          <mxGeometry x="327" y="19" as="geometry">
            <mxPoint x="15" y="76" as="offset" />
          </mxGeometry>
        </mxCell>
        <mxCell id="edge12" value="" style="html=1;rounded=1;edgeStyle=orthogonalEdgeStyle;dashed=0;startArrow=diamondThinstartSize=12;endArrow=openThin;endSize=12;strokeColor=#595959;exitX=0.500;exitY=0.001;exitDx=0;exitDy=0;entryX=0.500;entryY=0.001;entryDx=0;entryDy=0;fontFamily=Helvetica;verticalAlign=middle;" parent="1" source="node3" target="node18" edge="1">
          <mxGeometry width="50" height="50" relative="1" as="geometry">
            <Array as="points">
              <mxPoint x="-133" y="600" />
              <mxPoint x="-193" y="600" />
              <mxPoint x="-193" y="520" />
              <mxPoint x="-93" y="520" />
            </Array>
          </mxGeometry>
        </mxCell>
        <mxCell id="label72" value="1" style="edgeLabel;resizable=0;html=1;align=left;verticalAlign=middle;strokeColor=default;fontFamily=Helvetica;" parent="edge12" vertex="1" connectable="0">
          <mxGeometry x="-142" y="722" as="geometry" />
        </mxCell>
        <mxCell id="label76" value="1" style="edgeLabel;resizable=0;html=1;align=left;verticalAlign=middle;strokeColor=default;fontFamily=Helvetica;" parent="edge12" vertex="1" connectable="0">
          <mxGeometry x="-142" y="615" as="geometry" />
        </mxCell>
        <mxCell id="label77" value="jwtProvider" style="edgeLabel;resizable=0;html=1;align=left;verticalAlign=middle;strokeColor=default;fontFamily=Helvetica;" parent="edge12" vertex="1" connectable="0">
          <mxGeometry x="-133" y="639" as="geometry" />
        </mxCell>
        <mxCell id="edge20" value="" style="html=1;rounded=1;edgeStyle=orthogonalEdgeStyle;dashed=0;startArrow=diamondThinstartSize=12;endArrow=openThin;endSize=12;strokeColor=#595959;exitX=0.500;exitY=0.001;exitDx=0;exitDy=0;entryX=0.500;entryY=1.001;entryDx=0;entryDy=0;fontFamily=Helvetica;verticalAlign=middle;" parent="1" source="node18" target="node19" edge="1">
          <mxGeometry width="50" height="50" relative="1" as="geometry">
            <Array as="points" />
          </mxGeometry>
        </mxCell>
        <mxCell id="label120" value="1" style="edgeLabel;resizable=0;html=1;align=left;verticalAlign=middle;strokeColor=default;fontFamily=Helvetica;" parent="edge20" vertex="1" connectable="0">
          <mxGeometry x="-102" y="481" as="geometry" />
        </mxCell>
        <mxCell id="label124" value="1" style="edgeLabel;resizable=0;html=1;align=left;verticalAlign=middle;strokeColor=default;fontFamily=Helvetica;" parent="edge20" vertex="1" connectable="0">
          <mxGeometry x="-102" y="443" as="geometry" />
        </mxCell>
        <mxCell id="label125" value="invalidJwtDao" style="edgeLabel;resizable=0;html=1;align=left;verticalAlign=middle;strokeColor=default;fontFamily=Helvetica;" parent="edge20" vertex="1" connectable="0">
          <mxGeometry x="-93" y="439" as="geometry">
            <mxPoint x="5" y="38" as="offset" />
          </mxGeometry>
        </mxCell>
        <mxCell id="edge5" value="" style="html=1;rounded=1;edgeStyle=orthogonalEdgeStyle;dashed=0;startArrow=diamondThinstartSize=12;endArrow=openThin;endSize=12;strokeColor=#595959;exitX=0.500;exitY=0.002;exitDx=0;exitDy=0;entryX=0.500;entryY=1.001;entryDx=0;entryDy=0;fontFamily=Helvetica;verticalAlign=middle;" parent="1" source="node8" target="node9" edge="1">
          <mxGeometry width="50" height="50" relative="1" as="geometry">
            <Array as="points">
              <mxPoint x="387" y="500" />
              <mxPoint x="7" y="500" />
            </Array>
          </mxGeometry>
        </mxCell>
        <mxCell id="label30" value="1" style="edgeLabel;resizable=0;html=1;align=left;verticalAlign=middle;strokeColor=default;fontFamily=Helvetica;" parent="edge5" vertex="1" connectable="0">
          <mxGeometry x="378" y="491" as="geometry" />
        </mxCell>
        <mxCell id="label34" value="1" style="edgeLabel;resizable=0;html=1;align=left;verticalAlign=middle;strokeColor=default;fontFamily=Helvetica;" parent="edge5" vertex="1" connectable="0">
          <mxGeometry x="-2" y="407" as="geometry" />
        </mxCell>
        <mxCell id="edge8" value="" style="html=1;rounded=1;edgeStyle=orthogonalEdgeStyle;dashed=1;startArrow=none;endArrow=openThin;endSize=12;strokeColor=#595959;exitX=0.250;exitY=0.001;exitDx=0;exitDy=0;entryX=0.500;entryY=1.001;entryDx=0;entryDy=0;fontFamily=Helvetica;verticalAlign=middle;" parent="1" source="node10" target="node3" edge="1">
          <mxGeometry width="50" height="50" relative="1" as="geometry">
            <Array as="points">
              <mxPoint x="-74" y="900" />
              <mxPoint x="-133" y="900" />
            </Array>
          </mxGeometry>
        </mxCell>
        <mxCell id="label50" value="«create»" style="edgeLabel;resizable=0;html=1;align=left;verticalAlign=middle;strokeColor=default;fontFamily=Helvetica;" parent="edge8" vertex="1" connectable="0">
          <mxGeometry x="-129" y="891" as="geometry" />
        </mxCell>
        <mxCell id="edge11" value="" style="html=1;rounded=1;edgeStyle=orthogonalEdgeStyle;dashed=0;startArrow=diamondThinstartSize=12;endArrow=openThin;endSize=12;strokeColor=#595959;exitX=0.750;exitY=0.001;exitDx=0;exitDy=0;entryX=0.500;entryY=0.001;entryDx=0;entryDy=0;fontFamily=Helvetica;verticalAlign=middle;" parent="1" source="node10" target="node18" edge="1">
          <mxGeometry width="50" height="50" relative="1" as="geometry">
            <Array as="points">
              <mxPoint x="8" y="900" />
              <mxPoint x="7" y="900" />
              <mxPoint x="7" y="720" />
              <mxPoint x="-133" y="720" />
              <mxPoint x="-133" y="600" />
              <mxPoint x="-193" y="600" />
              <mxPoint x="-193" y="520" />
              <mxPoint x="-93" y="520" />
            </Array>
          </mxGeometry>
        </mxCell>
        <mxCell id="label66" value="1" style="edgeLabel;resizable=0;html=1;align=left;verticalAlign=middle;strokeColor=default;fontFamily=Helvetica;" parent="edge11" vertex="1" connectable="0">
          <mxGeometry x="-1" y="902" as="geometry" />
        </mxCell>
        <mxCell id="label70" value="1" style="edgeLabel;resizable=0;html=1;align=left;verticalAlign=middle;strokeColor=default;fontFamily=Helvetica;" parent="edge11" vertex="1" connectable="0">
          <mxGeometry x="-32" y="701" as="geometry" />
        </mxCell>
        <mxCell id="label71" value="jwtProvider" style="edgeLabel;resizable=0;html=1;align=left;verticalAlign=middle;strokeColor=default;fontFamily=Helvetica;" parent="edge11" vertex="1" connectable="0">
          <mxGeometry x="7" y="711" as="geometry" />
        </mxCell>
        <mxCell id="edge4" value="" style="html=1;rounded=1;edgeStyle=orthogonalEdgeStyle;dashed=0;startArrow=diamondThinstartSize=12;endArrow=openThin;endSize=12;strokeColor=#595959;exitX=0.500;exitY=0.001;exitDx=0;exitDy=0;entryX=0.500;entryY=0.001;entryDx=0;entryDy=0;fontFamily=Helvetica;verticalAlign=middle;" parent="1" source="node15" target="node1" edge="1">
          <mxGeometry width="50" height="50" relative="1" as="geometry">
            <Array as="points">
              <mxPoint x="627" y="720" />
              <mxPoint x="727" y="720" />
              <mxPoint x="727" y="520" />
              <mxPoint x="627" y="520" />
            </Array>
          </mxGeometry>
        </mxCell>
        <mxCell id="label24" value="1" style="edgeLabel;resizable=0;html=1;align=left;verticalAlign=middle;strokeColor=default;fontFamily=Helvetica;" parent="edge4" vertex="1" connectable="0">
          <mxGeometry x="618" y="722" as="geometry" />
        </mxCell>
        <mxCell id="label28" value="1" style="edgeLabel;resizable=0;html=1;align=left;verticalAlign=middle;strokeColor=default;fontFamily=Helvetica;" parent="edge4" vertex="1" connectable="0">
          <mxGeometry x="718" y="544" as="geometry" />
        </mxCell>
        <mxCell id="label29" value="tableService" style="edgeLabel;resizable=0;html=1;align=left;verticalAlign=middle;strokeColor=default;fontFamily=Helvetica;" parent="edge4" vertex="1" connectable="0">
          <mxGeometry x="727" y="577" as="geometry" />
        </mxCell>
        <mxCell id="edge15" value="" style="html=1;rounded=1;edgeStyle=orthogonalEdgeStyle;dashed=0;startArrow=diamondThinstartSize=12;endArrow=openThin;endSize=12;strokeColor=#595959;exitX=0.500;exitY=0.002;exitDx=0;exitDy=0;entryX=0.500;entryY=1.001;entryDx=0;entryDy=0;fontFamily=Helvetica;verticalAlign=middle;" parent="1" source="node1" target="node17" edge="1">
          <mxGeometry width="50" height="50" relative="1" as="geometry">
            <Array as="points">
              <mxPoint x="627" y="500" />
              <mxPoint x="567" y="500" />
              <mxPoint x="567" y="460" />
              <mxPoint x="447" y="460" />
            </Array>
          </mxGeometry>
        </mxCell>
        <mxCell id="label90" value="1" style="edgeLabel;resizable=0;html=1;align=left;verticalAlign=middle;strokeColor=default;fontFamily=Helvetica;" parent="edge15" vertex="1" connectable="0">
          <mxGeometry x="543" y="441" as="geometry" />
        </mxCell>
        <mxCell id="label94" value="1" style="edgeLabel;resizable=0;html=1;align=left;verticalAlign=middle;strokeColor=default;fontFamily=Helvetica;" parent="edge15" vertex="1" connectable="0">
          <mxGeometry x="463" y="441" as="geometry" />
        </mxCell>
        <mxCell id="label95" value="fuzzySearchTable" style="edgeLabel;resizable=0;html=1;align=left;verticalAlign=middle;strokeColor=default;fontFamily=Helvetica;" parent="edge15" vertex="1" connectable="0">
          <mxGeometry x="567" y="451" as="geometry" />
        </mxCell>
        <mxCell id="edge10" value="" style="html=1;rounded=1;edgeStyle=orthogonalEdgeStyle;dashed=0;startArrow=diamondThinstartSize=12;endArrow=openThin;endSize=12;strokeColor=#595959;exitX=0.500;exitY=0.002;exitDx=0;exitDy=0;entryX=0.500;entryY=1.001;entryDx=0;entryDy=0;fontFamily=Helvetica;verticalAlign=middle;" parent="1" source="node1" target="node9" edge="1">
          <mxGeometry width="50" height="50" relative="1" as="geometry">
            <Array as="points">
              <mxPoint x="627" y="500" />
              <mxPoint x="567" y="500" />
              <mxPoint x="567" y="480" />
              <mxPoint x="7" y="480" />
            </Array>
          </mxGeometry>
        </mxCell>
        <mxCell id="label60" value="1" style="edgeLabel;resizable=0;html=1;align=left;verticalAlign=middle;strokeColor=default;fontFamily=Helvetica;" parent="edge10" vertex="1" connectable="0">
          <mxGeometry x="583" y="481" as="geometry" />
        </mxCell>
        <mxCell id="label64" value="1" style="edgeLabel;resizable=0;html=1;align=left;verticalAlign=middle;strokeColor=default;fontFamily=Helvetica;" parent="edge10" vertex="1" connectable="0">
          <mxGeometry x="96" y="461" as="geometry" />
        </mxCell>
        <mxCell id="label65" value="userDao" style="edgeLabel;resizable=0;html=1;align=left;verticalAlign=middle;strokeColor=default;fontFamily=Helvetica;" parent="edge10" vertex="1" connectable="0">
          <mxGeometry x="73" y="480" as="geometry" />
        </mxCell>
        <mxCell id="edge13" value="" style="html=1;rounded=1;edgeStyle=orthogonalEdgeStyle;dashed=0;startArrow=diamondThinstartSize=12;endArrow=openThin;endSize=12;strokeColor=#595959;exitX=0.500;exitY=0.001;exitDx=0;exitDy=0;entryX=0.250;entryY=1.001;entryDx=0;entryDy=0;fontFamily=Helvetica;verticalAlign=middle;" parent="1" source="node6" target="node13" edge="1">
          <mxGeometry width="50" height="50" relative="1" as="geometry">
            <Array as="points">
              <mxPoint x="7" y="140" />
              <mxPoint x="159" y="140" />
            </Array>
          </mxGeometry>
        </mxCell>
        <mxCell id="label78" value="1" style="edgeLabel;resizable=0;html=1;align=left;verticalAlign=middle;strokeColor=default;fontFamily=Helvetica;" parent="edge13" vertex="1" connectable="0">
          <mxGeometry x="-2" y="202" as="geometry" />
        </mxCell>
        <mxCell id="label82" value="1" style="edgeLabel;resizable=0;html=1;align=left;verticalAlign=middle;strokeColor=default;fontFamily=Helvetica;" parent="edge13" vertex="1" connectable="0">
          <mxGeometry x="162" y="125" as="geometry" />
        </mxCell>
        <mxCell id="label83" value="country" style="edgeLabel;resizable=0;html=1;align=left;verticalAlign=middle;strokeColor=default;fontFamily=Helvetica;" parent="edge13" vertex="1" connectable="0">
          <mxGeometry x="159" y="79" as="geometry">
            <mxPoint x="-25" y="30" as="offset" />
          </mxGeometry>
        </mxCell>
        <mxCell id="edge0" value="" style="html=1;rounded=1;edgeStyle=orthogonalEdgeStyle;dashed=0;startArrow=diamondThinstartSize=12;endArrow=openThin;endSize=12;strokeColor=#595959;exitX=0.500;exitY=0.001;exitDx=0;exitDy=0;entryX=0.500;entryY=1.001;entryDx=0;entryDy=0;fontFamily=Helvetica;verticalAlign=middle;" parent="1" source="node7" target="node9" edge="1">
          <mxGeometry width="50" height="50" relative="1" as="geometry">
            <Array as="points">
              <mxPoint x="487" y="840" />
              <mxPoint x="527" y="840" />
              <mxPoint x="527" y="500" />
              <mxPoint x="7" y="500" />
            </Array>
          </mxGeometry>
        </mxCell>
        <mxCell id="label0" value="1" style="edgeLabel;resizable=0;html=1;align=left;verticalAlign=middle;strokeColor=default;fontFamily=Helvetica;" parent="edge0" vertex="1" connectable="0">
          <mxGeometry x="503" y="821" as="geometry" />
        </mxCell>
        <mxCell id="label4" value="1" style="edgeLabel;resizable=0;html=1;align=left;verticalAlign=middle;strokeColor=default;fontFamily=Helvetica;" parent="edge0" vertex="1" connectable="0">
          <mxGeometry x="176" y="481" as="geometry" />
        </mxCell>
        <mxCell id="label5" value="userDao" style="edgeLabel;resizable=0;html=1;align=left;verticalAlign=middle;strokeColor=default;fontFamily=Helvetica;" parent="edge0" vertex="1" connectable="0">
          <mxGeometry x="527" y="604" as="geometry" />
        </mxCell>
        <mxCell id="edge14" value="" style="html=1;rounded=1;edgeStyle=orthogonalEdgeStyle;dashed=0;startArrow=diamondThinstartSize=12;endArrow=openThin;endSize=12;strokeColor=#595959;exitX=0.500;exitY=0.001;exitDx=0;exitDy=0;entryX=0.500;entryY=0.001;entryDx=0;entryDy=0;fontFamily=Helvetica;verticalAlign=middle;" parent="1" source="node7" target="node12" edge="1">
          <mxGeometry width="50" height="50" relative="1" as="geometry">
            <Array as="points">
              <mxPoint x="487" y="720" />
              <mxPoint x="387" y="720" />
            </Array>
          </mxGeometry>
        </mxCell>
        <mxCell id="label84" value="1" style="edgeLabel;resizable=0;html=1;align=left;verticalAlign=middle;strokeColor=default;fontFamily=Helvetica;" parent="edge14" vertex="1" connectable="0">
          <mxGeometry x="478" y="902" as="geometry" />
        </mxCell>
        <mxCell id="label88" value="1" style="edgeLabel;resizable=0;html=1;align=left;verticalAlign=middle;strokeColor=default;fontFamily=Helvetica;" parent="edge14" vertex="1" connectable="0">
          <mxGeometry x="478" y="752" as="geometry" />
        </mxCell>
        <mxCell id="label89" value="userService" style="edgeLabel;resizable=0;html=1;align=left;verticalAlign=middle;strokeColor=default;fontFamily=Helvetica;" parent="edge14" vertex="1" connectable="0">
          <mxGeometry x="387" y="724" as="geometry">
            <mxPoint x="23" y="6" as="offset" />
          </mxGeometry>
        </mxCell>
        <mxCell id="edge19" value="" style="html=1;rounded=1;edgeStyle=orthogonalEdgeStyle;dashed=1;startArrow=none;endArrow=openThin;endSize=12;strokeColor=#595959;exitX=0.500;exitY=0.001;exitDx=0;exitDy=0;entryX=0.750;entryY=1.001;entryDx=0;entryDy=0;fontFamily=Helvetica;verticalAlign=middle;" parent="1" source="node9" target="node13" edge="1">
          <mxGeometry width="50" height="50" relative="1" as="geometry">
            <Array as="points">
              <mxPoint x="7" y="320" />
              <mxPoint x="207" y="320" />
              <mxPoint x="207" y="200" />
              <mxPoint x="215" y="200" />
            </Array>
          </mxGeometry>
        </mxCell>
        <mxCell id="label116" value="«create»" style="edgeLabel;resizable=0;html=1;align=left;verticalAlign=middle;strokeColor=default;fontFamily=Helvetica;" parent="edge19" vertex="1" connectable="0">
          <mxGeometry x="152" y="251" as="geometry" />
        </mxCell>
        <mxCell id="edge9" value="" style="html=1;rounded=1;edgeStyle=orthogonalEdgeStyle;dashed=1;startArrow=none;endArrow=openThin;endSize=12;strokeColor=#595959;exitX=0.500;exitY=0.002;exitDx=0;exitDy=0;entryX=0.500;entryY=1.002;entryDx=0;entryDy=0;fontFamily=Helvetica;verticalAlign=middle;" parent="1" source="node9" target="node6" edge="1">
          <mxGeometry width="50" height="50" relative="1" as="geometry">
            <Array as="points" />
          </mxGeometry>
        </mxCell>
        <mxCell id="label56" value="«create»" style="edgeLabel;resizable=0;html=1;align=left;verticalAlign=middle;strokeColor=default;fontFamily=Helvetica;" parent="edge9" vertex="1" connectable="0">
          <mxGeometry x="-48" y="291" as="geometry" />
        </mxCell>
        <mxCell id="edge1" value="" style="html=1;rounded=1;edgeStyle=orthogonalEdgeStyle;dashed=0;startArrow=diamondThinstartSize=12;endArrow=openThin;endSize=12;strokeColor=#595959;exitX=0.500;exitY=0.001;exitDx=0;exitDy=0;entryX=0.500;entryY=0.001;entryDx=0;entryDy=0;fontFamily=Helvetica;verticalAlign=middle;" parent="1" source="node12" target="node18" edge="1">
          <mxGeometry width="50" height="50" relative="1" as="geometry">
            <Array as="points">
              <mxPoint x="387" y="620" />
              <mxPoint x="-133" y="620" />
              <mxPoint x="-133" y="600" />
              <mxPoint x="-193" y="600" />
              <mxPoint x="-193" y="520" />
              <mxPoint x="-93" y="520" />
            </Array>
          </mxGeometry>
        </mxCell>
        <mxCell id="label6" value="1" style="edgeLabel;resizable=0;html=1;align=left;verticalAlign=middle;strokeColor=default;fontFamily=Helvetica;" parent="edge1" vertex="1" connectable="0">
          <mxGeometry x="253" y="601" as="geometry" />
        </mxCell>
        <mxCell id="label10" value="1" style="edgeLabel;resizable=0;html=1;align=left;verticalAlign=middle;strokeColor=default;fontFamily=Helvetica;" parent="edge1" vertex="1" connectable="0">
          <mxGeometry x="123" y="601" as="geometry" />
        </mxCell>
        <mxCell id="label11" value="jwtProvider" style="edgeLabel;resizable=0;html=1;align=left;verticalAlign=middle;strokeColor=default;fontFamily=Helvetica;" parent="edge1" vertex="1" connectable="0">
          <mxGeometry x="-133" y="601" as="geometry">
            <mxPoint x="6" y="-1" as="offset" />
          </mxGeometry>
        </mxCell>
        <mxCell id="edge6" value="" style="html=1;rounded=1;edgeStyle=orthogonalEdgeStyle;dashed=0;startArrow=diamondThinstartSize=12;endArrow=openThin;endSize=12;strokeColor=#595959;exitX=0.500;exitY=0.001;exitDx=0;exitDy=0;entryX=0.500;entryY=0.001;entryDx=0;entryDy=0;fontFamily=Helvetica;verticalAlign=middle;" parent="1" source="node12" target="node8" edge="1">
          <mxGeometry width="50" height="50" relative="1" as="geometry">
            <Array as="points">
              <mxPoint x="387" y="600" />
              <mxPoint x="287" y="600" />
              <mxPoint x="287" y="520" />
              <mxPoint x="387" y="520" />
            </Array>
          </mxGeometry>
        </mxCell>
        <mxCell id="label36" value="1" style="edgeLabel;resizable=0;html=1;align=left;verticalAlign=middle;strokeColor=default;fontFamily=Helvetica;" parent="edge6" vertex="1" connectable="0">
          <mxGeometry x="316" y="581" as="geometry" />
        </mxCell>
        <mxCell id="label40" value="1" style="edgeLabel;resizable=0;html=1;align=left;verticalAlign=middle;strokeColor=default;fontFamily=Helvetica;" parent="edge6" vertex="1" connectable="0">
          <mxGeometry x="299" y="581" as="geometry" />
        </mxCell>
        <mxCell id="label41" value="otpProvider" style="edgeLabel;resizable=0;html=1;align=left;verticalAlign=middle;strokeColor=default;fontFamily=Helvetica;" parent="edge6" vertex="1" connectable="0">
          <mxGeometry x="387" y="591" as="geometry" />
        </mxCell>
        <mxCell id="edge18" value="" style="html=1;rounded=1;edgeStyle=orthogonalEdgeStyle;dashed=0;startArrow=diamondThinstartSize=12;endArrow=openThin;endSize=12;strokeColor=#595959;exitX=0.500;exitY=0.002;exitDx=0;exitDy=0;entryX=0.500;entryY=1.001;entryDx=0;entryDy=0;fontFamily=Helvetica;verticalAlign=middle;" parent="1" source="node12" target="node9" edge="1">
          <mxGeometry width="50" height="50" relative="1" as="geometry">
            <Array as="points">
              <mxPoint x="387" y="700" />
              <mxPoint x="487" y="700" />
              <mxPoint x="487" y="500" />
              <mxPoint x="7" y="500" />
            </Array>
          </mxGeometry>
        </mxCell>
        <mxCell id="label108" value="1" style="edgeLabel;resizable=0;html=1;align=left;verticalAlign=middle;strokeColor=default;fontFamily=Helvetica;" parent="edge18" vertex="1" connectable="0">
          <mxGeometry x="466" y="681" as="geometry" />
        </mxCell>
        <mxCell id="label112" value="1" style="edgeLabel;resizable=0;html=1;align=left;verticalAlign=middle;strokeColor=default;fontFamily=Helvetica;" parent="edge18" vertex="1" connectable="0">
          <mxGeometry x="399" y="681" as="geometry" />
        </mxCell>
        <mxCell id="label113" value="userDao" style="edgeLabel;resizable=0;html=1;align=left;verticalAlign=middle;strokeColor=default;fontFamily=Helvetica;" parent="edge18" vertex="1" connectable="0">
          <mxGeometry x="7" y="407" as="geometry">
            <mxPoint x="9" y="1" as="offset" />
          </mxGeometry>
        </mxCell>
      </root>
    </mxGraphModel>
  </diagram>
</mxfile>
